<?xml version="1.0" standalone="no"?>
<!DOCTYPE svg PUBLIC "-//W3C//DTD SVG 20010904//EN"
 "http://www.w3.org/TR/2001/REC-SVG-20010904/DTD/svg10.dtd">
<svg version="1.0" xmlns="http://www.w3.org/2000/svg"
 width="16.000000pt" height="16.000000pt" viewBox="0 0 16.000000 16.000000"
 preserveAspectRatio="xMidYMid meet">
<metadata>
Created by potrace 1.11, written by Peter Selinger 2001-2013
</metadata>
<g transform="translate(0.000000,16.000000) scale(0.003125,-0.003125)"
fill="#000000" stroke="none">
<path d="M747 4566 c-84 -30 -148 -92 -190 -184 l-22 -47 0 -1780 0 -1780 24
-52 c29 -66 111 -143 176 -169 49 -18 96 -19 1825 -19 1729 0 1776 1 1825 19
65 26 147 103 176 169 l24 52 0 1780 0 1780 -26 55 c-36 78 -80 124 -151 160
l-61 30 -1781 0 c-1473 -1 -1788 -3 -1819 -14z m2360 -696 c381 -43 679 -310
754 -675 18 -82 15 -255 -5 -343 -73 -331 -345 -587 -687 -647 -70 -13 -238
-15 -1001 -15 l-918 0 0 370 0 370 884 0 885 0 15 22 c9 12 16 34 16 48 0 14
-7 36 -16 48 l-15 22 -730 0 -729 0 0 398 c0 219 3 402 7 405 10 11 1448 8
1540 -3z m-697 -2220 l0 -410 -425 0 -425 0 0 403 c0 222 3 407 7 410 3 4 195
7 425 7 l418 0 0 -410z"/>
</g>
</svg>
