<?xml version="1.0" standalone="no"?>
<!DOCTYPE svg PUBLIC "-//W3C//DTD SVG 20010904//EN"
 "http://www.w3.org/TR/2001/REC-SVG-20010904/DTD/svg10.dtd">
<svg version="1.0" xmlns="http://www.w3.org/2000/svg"
 width="16.000000pt" height="16.000000pt" viewBox="0 0 16.000000 16.000000"
 preserveAspectRatio="xMidYMid meet">
<metadata>
Created by potrace 1.11, written by Peter Selinger 2001-2013
</metadata>
<g transform="translate(0.000000,16.000000) scale(0.000408,-0.000408)"
fill="#000000" stroke="none">
<path d="M27257 37134 c-1 -1 -63 -5 -137 -8 -74 -4 -148 -9 -165 -11 -16 -2
-61 -6 -100 -10 -38 -3 -83 -8 -100 -11 -217 -31 -321 -48 -425 -69 -14 -3
-38 -8 -55 -11 -52 -9 -458 -112 -531 -134 -528 -163 -933 -323 -1424 -564
-451 -220 -753 -391 -1305 -736 -556 -348 -1435 -1001 -2025 -1504 -246 -209
-487 -419 -560 -486 -25 -23 -104 -95 -225 -205 -61 -55 -141 -129 -179 -165
-39 -36 -86 -80 -105 -98 -19 -18 -104 -99 -189 -180 -85 -81 -158 -148 -163
-150 -5 -2 -41 28 -81 67 -183 176 -426 406 -482 454 -12 10 -64 58 -116 106
-115 106 -430 385 -520 460 -36 30 -69 60 -75 66 -15 16 -400 335 -545 451
-264 212 -607 472 -871 662 -210 150 -734 504 -769 519 -8 4 -40 23 -70 43
-242 162 -780 464 -1155 649 -589 291 -1257 545 -1727 657 -10 2 -26 6 -35 8
-10 3 -79 19 -152 36 -131 29 -154 34 -223 45 -18 3 -53 10 -78 15 -48 10 -55
11 -230 34 -269 35 -371 41 -680 41 -246 0 -325 -3 -465 -19 -22 -3 -62 -8
-90 -11 -27 -3 -63 -7 -80 -9 -56 -8 -270 -48 -276 -51 -3 -2 -16 -6 -30 -8
-43 -8 -231 -57 -241 -63 -4 -3 -20 -8 -35 -10 -40 -7 -305 -106 -413 -154
-247 -108 -489 -251 -720 -424 -58 -43 -107 -82 -110 -85 -3 -3 -30 -26 -60
-51 -30 -24 -64 -54 -76 -65 -11 -11 -47 -45 -80 -76 -110 -105 -198 -199
-304 -326 -41 -48 -106 -131 -125 -157 -11 -16 -30 -40 -41 -55 -52 -64 -217
-323 -304 -476 -131 -232 -294 -608 -399 -923 -62 -186 -157 -526 -185 -662
-3 -14 -18 -88 -35 -165 -16 -77 -36 -185 -46 -240 -9 -55 -19 -113 -21 -130
-6 -34 -8 -41 -23 -150 -6 -44 -13 -102 -16 -130 -3 -27 -8 -57 -10 -65 -2 -8
-7 -48 -10 -89 -4 -41 -8 -82 -10 -90 -1 -9 -6 -54 -9 -101 -4 -47 -9 -103
-11 -125 -4 -39 -14 -175 -20 -285 -28 -465 -17 -1345 21 -1750 2 -25 6 -79 9
-120 3 -41 8 -100 10 -130 3 -30 7 -82 10 -115 3 -33 7 -80 10 -105 8 -76 14
-132 20 -195 3 -33 8 -73 10 -90 2 -16 9 -73 15 -125 6 -52 13 -108 15 -125 4
-34 25 -188 30 -225 2 -14 6 -42 9 -64 9 -62 16 -115 31 -211 8 -49 16 -106
19 -125 3 -19 12 -75 20 -125 8 -49 22 -133 31 -185 8 -52 24 -142 35 -200 11
-58 22 -119 24 -136 3 -16 21 -109 40 -205 19 -96 38 -189 41 -208 3 -19 7
-37 9 -40 2 -3 7 -23 10 -43 3 -21 17 -89 31 -152 13 -63 26 -125 29 -138 7
-36 55 -244 60 -260 3 -7 7 -26 10 -43 3 -16 7 -39 10 -50 4 -19 41 -170 101
-419 27 -111 25 -125 -12 -126 -7 0 -32 -6 -55 -14 -24 -8 -108 -33 -188 -56
-80 -23 -203 -60 -274 -82 -71 -22 -134 -41 -140 -43 -6 -1 -18 -4 -26 -8 -8
-3 -188 -62 -400 -131 -352 -116 -609 -205 -780 -269 -36 -13 -126 -47 -200
-74 -179 -67 -615 -241 -662 -265 -21 -10 -38 -16 -38 -12 0 4 -6 2 -12 -4 -7
-5 -69 -33 -138 -62 -649 -273 -1449 -680 -1998 -1017 -458 -281 -877 -576
-1222 -862 -494 -409 -910 -847 -1214 -1274 -253 -357 -463 -751 -581 -1087
-14 -41 -30 -84 -35 -95 -5 -11 -16 -47 -26 -80 -9 -33 -22 -78 -30 -101 -25
-79 -79 -318 -89 -394 -2 -14 -6 -38 -9 -55 -30 -169 -41 -316 -40 -570 0
-206 5 -315 20 -425 17 -128 24 -171 29 -190 2 -8 7 -37 11 -65 3 -27 8 -53
10 -56 2 -3 13 -48 24 -100 12 -52 23 -101 25 -109 2 -8 19 -67 39 -130 181
-590 501 -1153 963 -1693 233 -272 555 -588 846 -829 39 -33 85 -72 102 -86
71 -62 417 -324 504 -381 20 -13 38 -27 41 -31 4 -5 388 -261 445 -297 235
-146 505 -307 625 -371 36 -19 110 -60 165 -91 241 -136 928 -470 1240 -604
44 -19 100 -43 125 -55 77 -35 446 -186 635 -260 634 -249 1396 -507 2116
-717 107 -32 199 -58 206 -59 21 -3 23 -11 13 -47 -20 -70 -117 -473 -156
-648 -2 -12 -12 -53 -20 -89 -8 -36 -29 -128 -45 -206 -17 -78 -32 -150 -35
-161 -2 -11 -6 -32 -9 -48 -3 -15 -12 -59 -20 -97 -8 -38 -17 -82 -20 -97 -2
-16 -13 -71 -24 -123 -11 -53 -23 -113 -27 -134 -3 -21 -8 -48 -10 -60 -2 -11
-8 -46 -14 -76 -6 -30 -12 -66 -15 -80 -3 -14 -8 -41 -11 -60 -3 -19 -16 -98
-29 -175 -20 -119 -30 -184 -60 -375 -2 -14 -9 -61 -15 -105 -6 -44 -13 -91
-15 -105 -14 -93 -26 -181 -30 -220 -8 -69 -16 -132 -20 -160 -2 -14 -7 -50
-10 -80 -3 -30 -7 -71 -10 -90 -3 -19 -7 -60 -10 -90 -3 -30 -7 -75 -10 -100
-5 -42 -8 -78 -19 -197 -3 -27 -8 -86 -11 -133 -3 -47 -8 -96 -10 -110 -2 -14
-7 -77 -10 -140 -4 -63 -8 -131 -10 -150 -27 -283 -27 -1308 0 -1695 6 -85 23
-287 30 -355 2 -19 6 -64 10 -100 3 -36 10 -92 15 -125 5 -33 12 -85 15 -115
3 -30 8 -66 10 -80 5 -26 7 -42 25 -155 16 -105 19 -117 51 -285 17 -85 37
-182 46 -215 8 -33 17 -71 19 -85 16 -93 154 -563 194 -665 4 -11 18 -49 31
-85 25 -73 102 -266 126 -320 9 -19 35 -75 58 -125 222 -485 524 -923 876
-1274 99 -98 173 -165 292 -261 10 -8 31 -25 45 -38 61 -52 306 -215 427 -284
243 -139 498 -250 742 -324 100 -30 341 -90 393 -99 19 -3 42 -7 50 -10 21 -6
215 -34 281 -40 30 -3 63 -8 75 -10 97 -21 752 -22 859 -1 11 2 56 7 100 10
44 4 91 9 105 11 14 2 45 7 70 10 213 29 527 91 670 131 30 9 62 18 70 20 78
18 180 46 232 62 35 11 110 35 168 53 58 17 111 37 119 43 8 6 15 9 15 7 1 -4
40 6 71 19 11 4 43 16 70 25 425 148 1058 442 1555 723 63 36 135 76 160 90
48 27 381 228 468 283 210 132 677 450 917 623 87 62 393 292 403 303 7 7 17
13 20 13 4 0 18 10 32 23 14 12 54 45 90 72 36 27 101 79 146 115 44 36 98 79
119 95 45 35 528 435 535 444 3 3 52 47 110 96 58 50 110 95 116 100 6 6 39
35 73 65 73 64 99 87 161 144 125 114 164 149 270 247 63 59 131 122 150 139
19 18 109 103 199 189 90 86 167 155 172 154 4 -2 42 -35 82 -75 69 -68 311
-298 383 -364 128 -119 247 -227 289 -265 27 -24 54 -49 60 -55 5 -6 48 -44
95 -85 47 -41 87 -76 90 -79 6 -6 149 -132 195 -171 256 -221 373 -318 614
-511 80 -64 153 -123 161 -131 8 -7 56 -44 105 -82 50 -38 128 -99 175 -135
79 -61 143 -108 399 -295 335 -245 1076 -735 1111 -735 5 0 10 -4 10 -8 0 -5
15 -16 33 -25 17 -9 46 -25 62 -35 571 -335 1106 -602 1590 -791 88 -35 187
-73 220 -86 61 -24 292 -102 445 -150 100 -32 355 -99 455 -121 39 -9 79 -18
90 -20 22 -5 158 -33 193 -40 70 -13 151 -26 175 -30 15 -2 45 -6 67 -9 64
-10 102 -14 160 -20 30 -3 73 -8 95 -10 225 -26 732 -26 945 0 19 2 53 7 75
10 22 3 58 7 80 10 22 3 49 7 60 9 11 2 54 9 95 16 41 6 138 27 215 46 549
134 1019 365 1455 713 135 109 139 112 293 265 157 158 283 305 410 481 48 66
91 125 97 132 5 7 10 15 10 18 0 3 15 27 33 53 124 176 323 564 440 857 99
249 231 657 272 845 2 8 20 87 39 175 20 88 39 176 42 195 3 19 8 44 11 55 3
11 8 30 10 43 1 12 5 32 7 45 30 175 53 327 62 402 3 33 8 69 10 80 2 11 6 47
9 82 3 34 7 70 9 80 2 10 7 52 10 93 4 41 9 91 11 110 2 19 7 78 10 130 4 52
8 111 10 130 26 268 26 1370 0 1630 -2 19 -6 82 -10 140 -3 58 -8 125 -10 150
-2 25 -7 79 -10 120 -11 142 -16 205 -20 235 -2 17 -7 62 -10 100 -10 117 -22
233 -30 275 -2 14 -7 52 -10 85 -3 33 -8 74 -10 90 -2 17 -7 53 -10 80 -3 28
-8 61 -10 75 -7 43 -26 183 -30 220 -12 101 -96 610 -144 875 -11 61 -23 124
-26 140 -3 17 -9 50 -15 75 -5 25 -12 63 -16 85 -4 22 -8 45 -10 50 -1 6 -9
46 -18 90 -24 119 -53 261 -70 335 -68 311 -133 590 -188 807 l-43 172 30 7
c33 7 319 90 550 160 483 147 1052 339 1500 507 217 82 522 200 570 222 17 8
80 34 140 58 61 25 136 56 167 71 31 14 59 26 62 26 6 0 28 10 151 65 47 22
113 52 210 95 364 162 1021 498 1323 677 41 24 75 43 77 43 3 0 39 21 82 47
43 27 86 53 95 58 247 145 711 459 982 665 183 140 454 365 606 505 155 142
431 426 555 570 33 39 62 72 65 75 42 39 294 381 385 520 172 264 369 647 438
850 9 25 23 62 31 82 16 37 113 353 120 392 2 12 16 77 30 146 14 69 27 141
30 160 2 19 7 46 10 60 19 87 30 288 30 520 0 255 -7 353 -41 560 -8 52 -17
109 -19 125 -2 17 -8 44 -13 60 -5 17 -17 66 -27 110 -22 102 -17 83 -54 205
-36 117 -102 304 -130 365 -10 22 -30 69 -45 105 -33 78 -165 339 -200 395
-14 22 -28 47 -32 55 -14 32 -159 259 -216 340 -65 91 -169 232 -177 240 -3 3
-21 25 -40 50 -92 119 -293 342 -460 510 -179 180 -225 223 -359 340 -35 30
-74 65 -88 78 -95 88 -410 334 -593 464 -63 45 -117 85 -120 88 -10 13 -480
320 -610 400 -353 215 -664 386 -1110 608 -173 86 -349 172 -390 191 -71 33
-253 115 -350 158 -92 42 -378 163 -455 193 -44 17 -93 38 -110 45 -46 21
-289 115 -490 190 -99 36 -189 70 -200 75 -11 5 -33 13 -50 18 -16 6 -88 31
-160 57 -287 103 -1084 363 -1285 419 -51 14 -414 119 -417 120 0 1 14 62 33
136 18 74 36 144 38 155 3 11 7 29 10 40 121 515 235 1047 295 1385 12 63 23
126 26 140 5 22 26 151 41 245 2 17 7 41 9 55 12 57 24 129 29 175 2 17 7 46
10 65 21 129 36 233 41 285 4 33 8 67 10 75 4 15 11 62 19 135 3 22 7 56 10
75 3 19 8 56 11 83 3 26 7 68 10 95 3 26 8 61 10 77 2 17 7 62 10 100 3 39 8
77 10 85 2 8 7 51 10 95 4 44 8 96 10 115 2 19 6 78 10 130 3 52 8 106 10 120
2 14 7 75 11 135 3 61 8 133 9 160 27 419 27 1468 0 1670 -2 17 -7 73 -10 125
-6 111 -18 241 -30 335 -2 17 -7 55 -10 86 -3 31 -7 65 -9 75 -2 11 -7 46 -10
79 -10 81 -15 120 -26 185 -12 69 -20 117 -26 155 -2 17 -9 53 -14 80 -6 28
-12 61 -15 75 -3 14 -10 49 -16 79 -6 30 -13 64 -14 75 -5 35 -71 305 -99 406
-135 490 -324 957 -531 1318 -66 115 -61 105 -154 251 -406 631 -966 1120
-1616 1413 -107 48 -180 80 -185 80 -3 0 -16 5 -30 10 -75 28 -220 77 -220 73
0 -2 -15 2 -33 10 -81 34 -435 111 -597 130 -25 2 -61 7 -80 10 -126 17 -288
27 -493 29 -87 1 -159 1 -160 0z m358 -1708 c50 -3 99 -8 110 -10 11 -2 40 -7
65 -10 356 -48 722 -206 993 -429 77 -62 227 -212 293 -292 182 -219 333 -482
477 -830 41 -99 145 -416 172 -525 48 -192 116 -518 130 -625 5 -38 9 -62 20
-130 5 -32 22 -170 31 -245 2 -25 6 -63 9 -85 4 -37 11 -121 20 -240 33 -440
32 -1070 0 -1575 -11 -158 -21 -298 -29 -385 -3 -27 -8 -86 -11 -130 -4 -44
-8 -91 -10 -105 -3 -14 -7 -50 -10 -80 -3 -30 -8 -77 -11 -105 -3 -27 -7 -61
-9 -75 -2 -14 -6 -52 -9 -85 -3 -33 -8 -71 -10 -85 -4 -21 -27 -183 -41 -290
-9 -67 -79 -520 -91 -585 -3 -16 -12 -66 -20 -110 -8 -44 -24 -131 -35 -194
-11 -63 -22 -117 -24 -120 -2 -4 -6 -26 -10 -50 -3 -24 -15 -85 -26 -135 -11
-50 -22 -107 -25 -126 -3 -19 -7 -43 -10 -52 -3 -10 -8 -30 -10 -45 -3 -16
-10 -48 -15 -73 -6 -25 -13 -54 -15 -65 -8 -38 -13 -60 -29 -130 -9 -38 -18
-79 -20 -90 -14 -65 -32 -140 -72 -305 -24 -102 -46 -192 -48 -200 -17 -77
-39 -157 -45 -163 -4 -5 -25 -4 -46 2 -106 29 -996 213 -1230 254 -16 3 -54
10 -84 16 -78 16 -90 18 -140 26 -25 4 -54 9 -65 11 -25 5 -67 13 -102 19 -16
2 -95 16 -178 30 -82 14 -163 28 -180 30 -16 3 -52 10 -80 15 -27 5 -66 12
-85 15 -19 3 -46 7 -60 10 -14 3 -45 7 -70 10 -25 3 -83 12 -130 19 -47 8
-106 17 -131 21 -25 3 -57 8 -70 10 -79 13 -107 17 -129 20 -14 1 -59 8 -100
14 -41 6 -88 13 -105 15 -16 3 -75 11 -130 20 -91 13 -143 21 -230 31 -16 2
-50 6 -75 10 -25 3 -63 8 -85 10 -22 3 -53 7 -70 10 -16 2 -104 14 -195 25
-91 12 -176 23 -190 25 -14 2 -52 7 -85 10 -33 3 -71 8 -85 10 -14 2 -56 7
-94 10 -38 3 -83 8 -100 10 -17 2 -58 6 -91 10 -33 3 -71 8 -85 10 -14 2 -56
7 -94 10 -38 3 -83 8 -100 10 -17 2 -56 6 -86 10 -30 3 -75 8 -100 11 -55 6
-123 12 -215 19 -105 9 -138 14 -144 23 -3 4 -21 30 -40 57 -42 60 -292 406
-304 420 -4 6 -67 91 -138 189 -72 99 -138 189 -147 202 -9 12 -25 33 -34 45
-19 26 -190 251 -353 464 -100 130 -232 301 -247 320 -5 6 -129 161 -276 345
-236 296 -433 538 -567 695 -23 28 -78 93 -121 145 -65 79 -196 232 -393 456
-20 22 -61 69 -91 104 -100 116 -204 234 -247 280 -23 25 -52 57 -65 71 -12
14 -62 68 -109 120 -48 52 -107 116 -132 144 l-45 49 73 71 c156 151 473 450
524 494 10 9 58 53 107 97 49 45 134 121 189 169 55 48 116 102 135 119 19 17
80 70 135 116 55 47 102 87 105 91 3 3 73 61 155 129 83 68 152 127 155 130 3
3 61 50 130 105 407 325 813 624 1230 905 56 38 334 218 357 231 15 9 78 47
138 84 322 198 727 416 1050 565 82 39 132 61 145 65 3 1 28 12 55 24 157 72
622 245 712 266 10 2 56 16 103 30 84 25 337 89 395 99 46 9 137 26 164 31 14
2 45 7 70 10 25 3 60 8 76 11 39 7 84 11 225 20 63 3 116 7 117 8 5 4 235 -2
318 -8z m-15540 -29 c11 -3 56 -8 100 -12 44 -4 82 -8 85 -10 4 -2 26 -6 51
-9 24 -3 55 -8 69 -11 14 -3 52 -10 85 -15 90 -16 334 -77 470 -116 750 -220
1600 -640 2495 -1233 147 -97 365 -247 475 -328 154 -112 471 -347 475 -352 3
-3 23 -19 45 -36 22 -16 42 -32 45 -35 3 -3 21 -17 40 -30 19 -13 37 -27 40
-30 3 -3 39 -33 80 -65 41 -33 77 -62 80 -65 3 -3 21 -17 42 -32 20 -15 42
-33 50 -40 7 -7 51 -45 98 -83 47 -38 87 -72 90 -75 3 -4 15 -13 28 -22 12 -8
39 -31 60 -49 20 -19 66 -59 101 -88 35 -29 70 -58 77 -64 6 -7 38 -34 70 -62
73 -63 147 -127 248 -218 43 -39 86 -78 96 -87 18 -15 144 -129 205 -186 59
-54 272 -255 389 -367 l120 -114 -60 -64 c-32 -36 -102 -112 -154 -169 -52
-57 -122 -134 -155 -170 -80 -88 -78 -85 -95 -106 -28 -33 -321 -370 -355
-408 -84 -94 -164 -189 -539 -640 -23 -28 -68 -82 -101 -121 -33 -39 -73 -88
-90 -109 -105 -133 -241 -303 -250 -313 -5 -6 -36 -44 -68 -85 -31 -40 -107
-136 -167 -213 -134 -171 -93 -118 -305 -395 -99 -129 -222 -291 -273 -360
-51 -69 -98 -132 -105 -140 -7 -9 -28 -38 -47 -65 -19 -28 -40 -57 -47 -65
-18 -22 -331 -451 -351 -480 -110 -166 -155 -220 -180 -221 -15 0 -38 -2 -52
-4 -14 -1 -59 -6 -100 -9 -76 -7 -416 -43 -480 -51 -19 -2 -62 -7 -95 -10 -62
-6 -114 -12 -175 -20 -19 -2 -66 -7 -105 -10 -38 -3 -81 -8 -95 -10 -24 -4
-149 -20 -235 -31 -111 -13 -132 -16 -156 -20 -15 -2 -47 -6 -70 -9 -24 -3
-60 -7 -79 -10 -19 -2 -73 -9 -120 -15 -173 -22 -224 -29 -430 -60 -102 -16
-205 -31 -230 -35 -25 -3 -70 -10 -100 -15 -30 -5 -75 -11 -100 -14 -25 -4
-56 -8 -70 -10 -49 -9 -105 -17 -140 -22 -19 -2 -71 -11 -115 -19 -44 -8 -93
-16 -110 -19 -59 -10 -330 -57 -350 -61 -11 -3 -38 -7 -60 -11 -22 -3 -53 -8
-70 -10 -16 -3 -52 -9 -80 -14 -27 -5 -63 -12 -80 -15 -16 -2 -41 -7 -55 -10
-14 -2 -36 -7 -50 -9 -14 -3 -38 -8 -55 -11 -16 -3 -88 -17 -160 -31 -71 -14
-184 -36 -250 -49 -66 -13 -136 -27 -155 -30 -49 -8 -498 -105 -650 -140 -8
-2 -37 -8 -64 -15 -27 -6 -50 -9 -52 -7 -8 7 -162 648 -180 747 -3 14 -9 41
-14 60 -5 19 -11 46 -14 60 -2 14 -16 79 -30 145 -15 66 -28 131 -31 145 -2
14 -9 50 -15 80 -6 30 -13 66 -16 80 -3 14 -11 57 -19 95 -8 39 -16 81 -18 95
-10 54 -29 156 -34 180 -3 14 -6 34 -8 45 -5 31 -34 207 -39 230 -2 11 -9 54
-16 95 -6 41 -14 86 -16 100 -6 35 -32 206 -39 260 -3 25 -10 72 -15 105 -5
33 -12 87 -15 120 -4 33 -8 67 -10 75 -5 19 -12 77 -20 155 -3 33 -8 74 -10
90 -7 51 -17 148 -20 194 -2 24 -6 64 -9 90 -6 47 -10 95 -21 231 -3 41 -8 95
-10 120 -2 25 -7 95 -11 155 -3 61 -8 133 -10 160 -20 282 -20 1033 1 1300 2
28 6 95 10 150 4 55 8 114 10 130 1 17 6 62 9 100 12 117 16 159 21 185 3 14
7 48 11 75 3 28 7 59 8 70 2 11 7 44 11 74 3 30 9 63 11 75 2 12 9 48 14 81
15 91 56 287 85 405 15 58 28 112 30 120 4 19 47 165 75 255 30 96 110 308
121 320 5 5 9 15 9 23 0 19 121 269 178 367 319 552 729 891 1263 1044 139 40
238 59 427 80 69 8 532 6 567 -2z m7690 -5273 c50 -54 110 -121 135 -148 25
-28 50 -56 56 -62 5 -6 30 -35 55 -64 24 -29 53 -62 64 -74 11 -12 60 -68 110
-126 49 -58 92 -107 95 -110 3 -3 34 -39 70 -80 36 -41 67 -77 70 -80 3 -3 39
-45 80 -95 41 -49 77 -92 80 -95 3 -3 18 -21 34 -40 15 -19 45 -55 66 -80 225
-267 765 -939 940 -1170 47 -62 118 -155 158 -207 l74 -95 -129 6 c-119 6
-238 10 -573 21 -655 20 -2142 27 -2680 11 -140 -4 -327 -9 -415 -11 -393 -11
-737 -25 -752 -30 -7 -2 -13 -2 -13 0 0 10 515 677 565 731 5 7 28 35 50 64
22 29 54 69 71 89 17 20 73 90 124 156 52 66 97 122 100 125 3 3 27 32 55 65
27 33 56 66 63 73 7 8 25 30 40 50 15 21 32 43 39 50 7 7 29 34 50 60 21 26
43 52 49 57 6 6 42 48 80 95 76 93 90 111 155 186 24 27 69 79 99 114 30 35
60 68 65 74 6 6 84 97 175 201 90 105 169 195 175 201 5 6 42 46 82 90 39 43
95 104 123 134 29 30 66 72 83 93 l32 38 55 -59 c30 -32 96 -103 145 -158z
m1000 -4188 c77 -3 230 -8 340 -11 302 -9 450 -14 560 -20 126 -7 292 -15 415
-20 140 -6 327 -15 390 -20 30 -2 93 -7 140 -10 47 -3 114 -8 150 -10 36 -3
99 -7 140 -10 196 -13 226 -17 236 -28 6 -7 89 -129 185 -272 96 -143 176
-262 179 -265 3 -3 10 -12 15 -22 10 -16 182 -282 270 -418 110 -169 290 -448
305 -475 10 -16 118 -192 240 -390 183 -295 485 -799 570 -950 10 -18 30 -51
43 -72 28 -45 159 -272 207 -358 18 -33 49 -89 70 -125 20 -36 48 -85 62 -110
14 -25 65 -115 113 -200 48 -85 144 -258 213 -385 68 -126 129 -236 134 -242
6 -7 7 -13 4 -13 -4 0 1 -12 12 -27 10 -16 43 -73 72 -128 29 -55 67 -127 85
-160 18 -33 74 -141 125 -240 51 -99 121 -235 156 -302 168 -323 494 -986 494
-1005 0 -12 -441 -901 -595 -1198 -154 -298 -298 -569 -320 -605 -7 -11 -35
-63 -62 -115 -28 -52 -90 -167 -138 -255 -48 -88 -105 -194 -128 -235 -22 -41
-43 -79 -48 -85 -4 -5 -67 -116 -140 -245 -172 -306 -163 -291 -207 -368 -49
-85 -309 -529 -331 -562 -8 -14 -21 -35 -28 -47 -6 -12 -58 -99 -115 -193 -57
-94 -110 -184 -119 -198 -9 -15 -104 -169 -211 -342 -241 -389 -597 -945 -788
-1230 -269 -401 -313 -466 -324 -478 -7 -7 -39 -14 -72 -16 -32 -3 -104 -7
-159 -11 -55 -3 -118 -8 -140 -10 -22 -2 -96 -7 -165 -10 -69 -4 -132 -9 -141
-10 -9 -2 -90 -6 -180 -10 -90 -4 -189 -9 -219 -10 -30 -2 -120 -7 -200 -11
-80 -3 -167 -8 -195 -9 -27 -2 -140 -6 -250 -10 -110 -3 -249 -8 -310 -10
-597 -21 -2037 -27 -2610 -11 -505 14 -875 26 -960 31 -72 4 -279 14 -425 20
-58 3 -147 7 -197 10 -51 3 -137 7 -190 10 -54 3 -111 8 -128 10 -16 2 -86 6
-155 10 -69 3 -138 8 -155 10 -16 2 -79 7 -138 10 -60 4 -116 8 -125 9 -16 3
-326 459 -594 876 -83 129 -176 272 -205 318 -108 167 -147 229 -198 312 -29
47 -130 211 -225 365 -95 154 -238 390 -318 525 -79 135 -189 319 -242 410
-82 138 -337 585 -415 725 -12 22 -37 67 -55 100 -18 33 -36 65 -40 70 -4 6
-21 36 -39 68 -17 31 -44 81 -60 110 -51 94 -103 191 -144 267 -22 41 -57 104
-77 140 -20 36 -46 85 -59 110 -12 25 -36 70 -53 100 -16 30 -72 136 -123 235
-52 99 -130 250 -175 335 -152 292 -543 1085 -542 1100 0 8 71 159 157 335
157 322 183 373 305 610 37 72 120 234 185 360 65 127 121 235 125 240 4 6 32
58 63 116 31 59 67 126 80 150 33 60 81 148 167 309 116 215 140 259 198 360
30 52 73 129 95 170 22 41 48 86 57 100 9 14 34 56 54 93 70 129 218 388 278
485 21 34 38 64 38 67 0 2 17 32 39 67 21 35 98 164 171 288 73 124 143 241
155 260 12 19 67 107 120 195 224 366 385 624 490 785 34 52 93 144 131 204
38 59 198 303 356 540 l286 433 54 2 c29 2 71 4 93 6 22 2 85 6 140 10 55 3
123 8 150 10 28 2 91 6 140 10 50 3 115 8 145 10 30 2 114 7 185 10 210 10
529 25 620 30 28 2 145 6 260 10 116 3 255 8 310 10 55 2 226 7 380 10 154 4
281 8 282 9 5 5 1860 -3 1998 -8z m-6941 -348 c-4 -7 -36 -56 -70 -108 -34
-52 -105 -165 -158 -250 -52 -85 -100 -160 -106 -167 -5 -7 -10 -14 -10 -16 0
-4 -73 -124 -309 -507 -5 -8 -73 -123 -152 -255 -267 -451 -435 -740 -556
-955 -67 -118 -131 -233 -144 -255 -12 -22 -30 -53 -39 -70 -9 -16 -34 -61
-56 -100 -44 -75 -94 -166 -157 -285 -21 -41 -49 -93 -62 -115 -12 -22 -44
-80 -70 -130 -26 -49 -56 -103 -65 -120 -9 -16 -39 -70 -65 -120 -26 -49 -60
-112 -75 -140 -15 -27 -62 -116 -103 -197 l-75 -147 -15 32 c-25 55 -188 447
-229 552 -21 55 -42 109 -47 120 -11 24 -86 216 -226 575 -21 52 -57 149 -81
215 -23 66 -55 152 -69 190 -15 39 -34 90 -42 115 -8 25 -19 54 -24 65 -11 26
-68 179 -85 230 -7 22 -54 159 -104 305 -165 475 -313 931 -305 938 4 4 131
35 186 46 13 2 96 20 184 39 143 32 826 167 915 182 19 3 42 8 50 10 8 2 33 7
55 10 23 3 52 8 65 10 14 3 41 8 60 11 19 3 46 7 60 10 14 2 66 11 115 19 50
9 104 18 120 21 17 2 50 8 75 14 25 5 63 11 85 14 22 3 74 12 115 20 41 8 98
17 125 20 28 3 61 8 75 11 14 3 43 8 64 10 21 3 111 16 200 30 89 13 179 27
201 30 22 3 51 8 65 10 14 2 45 7 70 10 25 4 56 8 70 10 14 2 43 6 65 9 22 3
92 12 155 20 156 21 186 25 255 32 33 4 62 8 64 10 9 8 12 3 5 -8z m11636 -2
c14 -2 48 -7 75 -10 28 -4 64 -9 80 -11 17 -3 84 -12 150 -20 66 -8 149 -19
185 -25 36 -6 85 -12 110 -15 25 -3 54 -7 66 -10 11 -2 40 -7 65 -10 24 -3 55
-7 69 -10 14 -3 45 -8 70 -10 25 -3 52 -8 60 -10 8 -2 38 -7 65 -10 28 -4 91
-13 140 -21 50 -7 108 -16 130 -19 22 -3 92 -15 155 -27 63 -11 124 -21 135
-23 11 -1 142 -24 290 -49 241 -41 345 -61 521 -96 28 -6 64 -13 80 -16 16 -3
74 -14 129 -25 133 -27 124 -25 170 -34 64 -12 77 -14 130 -25 28 -6 61 -13
75 -15 14 -3 67 -15 118 -26 52 -12 99 -22 105 -23 122 -23 197 -44 197 -54 0
-10 -159 -507 -197 -616 -19 -56 -77 -222 -128 -371 -51 -148 -109 -313 -128
-365 -90 -249 -252 -684 -282 -760 -19 -47 -68 -173 -110 -280 -42 -107 -80
-204 -85 -215 -5 -11 -18 -42 -28 -70 -17 -44 -179 -439 -219 -535 -8 -19 -25
-57 -37 -83 l-22 -48 -47 93 c-56 111 -161 312 -204 388 -16 30 -48 89 -71
130 -209 388 -311 575 -376 689 -42 73 -76 135 -76 137 0 1 -19 35 -43 76 -24
40 -59 102 -79 138 -20 36 -70 125 -112 199 -42 73 -76 135 -76 138 0 2 -15
27 -33 56 -36 55 -92 149 -124 207 -35 61 -402 678 -446 748 -23 38 -47 77
-54 88 -6 10 -36 57 -65 104 -29 47 -57 93 -63 102 -27 48 -211 342 -307 492
l-109 169 63 -7 c35 -4 74 -8 88 -10z m5285 -1071 c588 -170 1189 -370 1755
-583 154 -58 192 -73 227 -88 17 -8 34 -14 37 -14 13 0 607 -248 741 -310 33
-15 128 -58 210 -96 176 -80 640 -310 774 -384 140 -76 203 -111 236 -132 17
-10 39 -22 51 -27 12 -5 46 -26 77 -45 31 -20 58 -36 60 -36 13 0 474 -290
528 -332 20 -15 40 -28 43 -28 4 0 12 -5 19 -10 7 -6 64 -47 127 -91 113 -80
350 -257 360 -269 3 -3 43 -37 90 -74 224 -180 487 -433 700 -676 117 -132
311 -405 403 -566 142 -246 258 -564 292 -799 4 -27 9 -61 12 -75 11 -68 10
-355 -3 -460 -48 -393 -201 -755 -496 -1176 -40 -56 -139 -185 -163 -210 -5
-6 -30 -35 -55 -64 -119 -143 -353 -377 -530 -530 -41 -36 -77 -68 -80 -71
-11 -12 -262 -211 -355 -281 -190 -143 -580 -406 -700 -474 -11 -6 -69 -41
-128 -77 -60 -37 -111 -67 -113 -67 -2 0 -23 -12 -45 -26 -22 -14 -86 -51
-142 -81 -661 -365 -1383 -695 -2172 -993 -399 -151 -997 -355 -1345 -460 -58
-17 -123 -38 -145 -45 -43 -15 -400 -119 -477 -140 l-47 -12 -15 46 c-8 25
-45 141 -81 256 -83 259 -106 329 -244 730 -112 327 -161 465 -311 870 -27 72
-65 175 -85 230 -41 111 -120 314 -140 360 -7 17 -31 77 -54 135 -99 259 -289
728 -396 975 -7 17 -30 71 -50 120 -21 50 -72 167 -113 260 -69 158 -239 542
-284 645 -21 47 -58 128 -108 234 -16 35 -30 70 -30 78 0 8 13 41 29 74 43 90
88 189 193 429 38 88 80 182 92 210 40 88 62 136 131 295 37 85 73 169 81 187
8 17 14 34 14 38 0 3 11 30 24 58 13 29 49 115 81 192 82 199 81 196 103 245
36 82 398 1000 438 1110 12 36 43 119 67 185 149 403 213 582 272 755 36 107
68 202 72 210 3 8 7 20 9 25 1 6 21 64 44 130 58 166 69 201 145 440 37 116
76 237 87 270 10 33 21 66 23 72 2 7 10 11 17 8 7 -2 117 -34 243 -70z
m-22051 -23 c13 -42 50 -158 81 -257 71 -226 99 -309 225 -675 56 -162 105
-306 110 -320 7 -23 44 -125 178 -490 93 -254 150 -405 215 -570 35 -91 92
-237 127 -325 34 -88 68 -173 75 -190 7 -16 24 -59 38 -95 21 -57 97 -239 289
-695 72 -171 244 -565 289 -663 22 -46 39 -86 39 -89 0 -3 16 -39 35 -80 19
-41 35 -77 35 -79 0 -2 20 -46 43 -96 103 -219 101 -214 84 -250 -8 -18 -36
-78 -62 -133 -26 -55 -51 -109 -55 -120 -8 -21 -268 -611 -300 -680 -30 -68
-224 -527 -225 -535 0 -3 -8 -21 -17 -40 -8 -19 -30 -71 -48 -115 -18 -44 -46
-109 -61 -145 -15 -36 -56 -139 -92 -230 -36 -91 -104 -264 -152 -385 -48
-121 -96 -245 -107 -275 -11 -30 -23 -64 -28 -75 -11 -24 -139 -371 -186 -505
-19 -52 -38 -104 -43 -115 -11 -22 -55 -146 -131 -370 -28 -82 -69 -202 -91
-265 -22 -63 -42 -122 -44 -130 -2 -8 -22 -66 -44 -128 -22 -62 -40 -114 -40
-117 0 -5 -39 -126 -144 -457 -12 -38 -26 -68 -32 -68 -14 0 -315 87 -535 155
-102 31 -189 58 -195 59 -5 2 -17 5 -25 9 -8 3 -148 49 -310 102 -555 182
-1313 466 -1658 621 -29 13 -80 36 -115 50 -34 14 -89 39 -122 54 -33 15 -82
38 -110 50 -314 138 -905 440 -1185 603 -47 28 -98 57 -115 66 -16 9 -41 24
-55 32 -14 9 -92 58 -175 109 -280 174 -522 341 -740 509 -99 77 -262 208
-275 221 -3 3 -39 34 -80 70 -165 143 -334 310 -510 506 -39 43 -216 267 -267
337 -223 310 -422 770 -457 1057 -3 25 -8 56 -12 70 -10 43 -12 362 -3 435 15
118 20 147 40 237 51 232 157 492 291 714 82 134 83 136 114 180 16 23 45 63
63 90 35 49 173 224 201 255 8 8 51 55 94 103 126 139 303 312 446 436 41 36
80 70 86 75 6 6 30 26 54 45 24 19 62 50 84 69 209 174 715 524 1007 696 10 6
41 24 71 41 29 17 82 48 118 69 251 147 725 393 1025 532 50 23 128 59 175 81
122 57 442 195 600 258 74 30 144 59 155 64 22 11 176 70 405 157 318 121 828
296 1185 407 83 26 166 52 185 59 19 6 40 12 45 13 43 11 490 145 493 149 11
10 22 -10 46 -83z m3023 -7162 c31 -58 66 -123 78 -145 22 -39 70 -128 143
-265 86 -162 242 -448 317 -580 45 -80 94 -166 108 -192 58 -103 81 -144 108
-190 16 -27 29 -51 29 -54 0 -2 11 -21 23 -42 13 -20 41 -68 62 -107 21 -38
94 -164 162 -279 68 -115 123 -213 123 -217 0 -5 5 -9 10 -9 6 0 10 -4 10 -9
0 -9 259 -451 304 -521 13 -19 120 -192 239 -385 118 -192 242 -393 275 -445
34 -52 74 -116 91 -142 24 -38 26 -46 12 -43 -10 2 -42 6 -72 10 -30 4 -65 9
-79 11 -14 1 -52 6 -85 9 -33 4 -66 8 -73 10 -7 3 -40 7 -75 10 -34 3 -71 8
-83 10 -12 3 -39 7 -60 10 -21 3 -55 8 -74 11 -19 3 -48 8 -65 10 -36 4 -102
13 -136 19 -44 7 -104 16 -139 21 -19 2 -62 9 -95 14 -33 5 -78 12 -100 15
-22 4 -69 11 -105 16 -36 6 -83 13 -105 15 -22 3 -47 7 -55 9 -8 3 -33 7 -55
10 -22 3 -51 8 -65 11 -14 2 -37 7 -52 9 -16 3 -40 7 -55 10 -16 3 -44 8 -63
11 -19 2 -48 8 -65 11 -16 3 -39 7 -50 8 -19 3 -107 18 -170 30 -16 3 -70 12
-120 21 -81 13 -190 34 -341 64 -28 6 -64 13 -80 16 -16 3 -74 14 -129 25 -55
11 -116 22 -135 25 -19 3 -43 7 -52 10 -10 3 -30 7 -45 10 -30 5 -295 61 -328
69 -60 15 -262 58 -272 58 -7 0 -13 5 -13 11 0 38 397 1221 475 1416 8 19 40
105 71 190 83 229 102 282 115 315 7 17 13 35 14 40 3 12 60 156 79 200 7 17
18 44 24 60 27 73 224 574 242 615 11 25 58 140 106 255 47 116 91 218 96 229
8 15 19 1 65 -90 30 -60 80 -156 110 -214z m15913 250 c19 -48 106 -259 130
-315 5 -11 18 -40 28 -65 11 -25 57 -139 102 -255 45 -115 88 -223 95 -240 7
-16 20 -48 28 -70 9 -22 45 -114 80 -205 36 -91 88 -230 117 -310 28 -80 55
-154 60 -165 5 -11 25 -65 45 -120 20 -55 40 -109 45 -120 10 -22 18 -43 162
-460 137 -395 318 -947 313 -953 -7 -8 -664 -149 -830 -178 -16 -3 -109 -20
-205 -39 -96 -19 -188 -37 -205 -39 -16 -3 -41 -8 -55 -11 -36 -7 -80 -14
-120 -21 -19 -2 -57 -9 -85 -14 -67 -13 -98 -18 -175 -30 -36 -6 -76 -13 -90
-16 -14 -2 -41 -7 -60 -9 -19 -3 -57 -10 -85 -16 -27 -5 -66 -12 -85 -15 -19
-3 -60 -9 -90 -14 -30 -5 -68 -11 -85 -14 -16 -2 -50 -8 -75 -12 -25 -4 -52
-8 -60 -9 -29 -4 -125 -17 -144 -21 -11 -2 -54 -8 -96 -14 -42 -6 -85 -12 -96
-14 -16 -3 -55 -9 -204 -31 -54 -8 -97 -14 -135 -19 -208 -27 -277 -36 -320
-41 -27 -4 -61 -8 -75 -11 -14 -2 -53 -6 -87 -10 l-63 -5 61 92 c56 84 450
717 485 778 8 14 22 38 32 53 9 14 64 104 121 200 57 95 112 185 122 200 11
15 19 29 19 31 0 3 25 47 56 98 31 52 65 108 74 124 10 17 33 57 52 90 19 33
66 112 103 175 56 94 287 501 393 690 14 25 51 90 82 145 50 88 108 194 232
425 35 65 206 381 278 515 21 39 69 130 106 203 37 73 71 129 75 125 4 -5 17
-33 29 -63z m-17547 -4960 c128 -28 241 -53 252 -55 37 -9 260 -55 285 -60 14
-3 117 -23 229 -45 112 -22 216 -42 230 -45 22 -4 66 -12 146 -28 27 -6 94
-18 125 -23 14 -3 48 -9 75 -14 28 -5 64 -11 80 -14 17 -2 73 -12 125 -21 52
-9 104 -18 115 -20 52 -8 125 -20 290 -50 51 -9 208 -34 250 -40 22 -3 51 -8
65 -10 14 -3 43 -7 65 -10 54 -7 121 -17 200 -30 22 -4 51 -8 65 -10 14 -1 43
-5 65 -9 22 -4 54 -8 70 -11 17 -2 48 -6 70 -10 121 -19 227 -34 280 -40 33
-3 105 -12 160 -20 100 -14 132 -18 235 -30 30 -4 66 -9 80 -11 14 -2 81 -11
150 -19 69 -9 139 -18 155 -20 17 -2 57 -6 90 -10 33 -3 76 -8 95 -10 19 -3
62 -7 95 -10 75 -8 131 -14 270 -30 22 -3 69 -7 105 -11 36 -3 76 -7 90 -9 36
-6 123 -14 302 -30 l77 -7 109 -157 c61 -86 147 -205 191 -266 45 -60 89 -121
99 -134 202 -278 350 -477 418 -566 46 -60 147 -193 225 -295 77 -102 148
-194 157 -205 10 -11 28 -36 42 -55 13 -19 27 -37 30 -40 3 -3 33 -39 65 -80
33 -41 65 -82 72 -90 7 -8 62 -78 123 -155 61 -77 119 -149 128 -160 9 -11 44
-54 76 -95 64 -81 237 -292 246 -300 3 -3 25 -30 50 -60 25 -30 47 -57 50 -60
4 -3 30 -34 59 -70 30 -36 72 -87 95 -115 53 -64 279 -328 286 -335 3 -3 32
-36 65 -75 33 -38 63 -72 66 -75 3 -3 55 -61 114 -130 98 -113 227 -258 296
-332 28 -30 167 -183 184 -203 6 -6 23 -25 39 -43 l29 -32 -59 -56 c-32 -31
-104 -100 -160 -153 -85 -81 -193 -183 -359 -336 -40 -37 -191 -174 -217 -197
-11 -9 -52 -46 -92 -81 -39 -35 -125 -111 -191 -167 -66 -57 -122 -106 -125
-109 -3 -3 -25 -22 -50 -42 -25 -20 -56 -47 -70 -58 -241 -210 -961 -772
-1167 -911 -12 -8 -81 -57 -155 -109 -73 -51 -218 -150 -323 -219 -104 -68
-202 -133 -217 -143 -15 -11 -31 -19 -37 -19 -5 0 -11 -4 -13 -8 -6 -15 -624
-382 -643 -382 -3 0 -24 -12 -46 -26 -40 -25 -471 -243 -559 -282 -79 -35
-234 -103 -255 -111 -11 -5 -31 -13 -45 -19 -309 -135 -731 -268 -1100 -347
-37 -8 -189 -34 -225 -39 -22 -3 -56 -8 -75 -11 -203 -31 -579 -36 -780 -10
-170 22 -398 76 -485 115 -11 5 -44 19 -74 30 -447 172 -853 571 -1123 1105
-117 229 -242 561 -304 805 -39 154 -65 260 -69 280 -7 34 -13 66 -25 125 -6
28 -12 61 -15 75 -3 14 -7 36 -10 50 -6 33 -13 73 -21 129 -4 25 -8 55 -10 65
-2 11 -8 56 -14 100 -6 45 -12 95 -15 111 -2 17 -7 62 -10 100 -4 39 -9 78
-11 88 -2 11 -6 62 -9 115 -4 54 -8 115 -11 137 -26 244 -25 1272 1 1555 2 25
6 86 9 135 3 50 8 110 11 135 2 25 7 83 11 129 3 47 7 92 9 100 1 9 6 54 10
101 3 47 8 96 10 110 2 14 6 50 10 80 3 30 8 71 10 90 3 19 7 60 10 90 3 30 8
66 10 80 2 14 9 63 15 110 6 47 13 96 15 110 6 40 14 102 20 145 3 23 8 52 10
65 3 14 8 45 11 70 3 25 12 83 20 130 8 47 17 101 20 120 2 19 7 46 10 60 3
14 8 39 10 55 4 34 11 78 19 115 10 50 46 246 55 295 10 56 90 449 115 565 9
41 19 86 21 100 3 14 28 122 55 240 28 118 52 222 54 230 2 8 11 44 20 80 9
36 18 72 20 80 2 8 9 35 15 60 7 25 14 60 17 78 3 17 7 32 10 32 2 0 109 -23
236 -50z m19241 -22 c9 -35 25 -101 36 -148 12 -47 23 -92 25 -100 6 -23 46
-193 50 -210 2 -8 15 -67 30 -130 14 -63 28 -124 30 -135 3 -11 7 -31 10 -45
3 -14 7 -34 9 -45 3 -11 18 -85 35 -165 18 -80 34 -158 37 -175 2 -16 7 -37 9
-45 2 -8 7 -31 10 -50 3 -19 8 -42 10 -50 2 -8 7 -31 10 -50 3 -19 14 -78 25
-130 10 -52 21 -108 24 -125 3 -16 21 -124 41 -240 20 -115 38 -221 40 -235 2
-14 13 -88 25 -165 12 -77 23 -151 25 -165 2 -14 7 -50 10 -80 3 -30 8 -62 10
-70 2 -8 7 -42 11 -75 3 -33 8 -69 9 -80 3 -19 8 -57 20 -170 10 -85 14 -118
19 -160 3 -22 7 -67 11 -100 3 -33 7 -80 10 -105 3 -25 7 -81 11 -125 3 -44 8
-96 9 -115 2 -19 6 -84 10 -145 4 -60 9 -128 10 -150 26 -360 26 -1295 0
-1505 -2 -19 -7 -73 -10 -120 -11 -158 -53 -513 -70 -600 -2 -13 -7 -40 -10
-60 -5 -36 -7 -43 -26 -140 -6 -30 -13 -68 -16 -85 -7 -40 -61 -278 -78 -340
-80 -300 -170 -545 -290 -791 -74 -151 -176 -330 -223 -389 -4 -5 -18 -26 -31
-45 -84 -122 -288 -341 -406 -437 -149 -120 -325 -222 -502 -292 -154 -61
-288 -97 -508 -136 -165 -29 -673 -23 -844 10 -9 2 -51 8 -94 15 -246 37 -577
121 -862 220 -838 289 -1743 783 -2735 1494 -117 83 -492 365 -570 428 -19 15
-109 87 -200 160 -143 114 -311 251 -346 283 -6 6 -22 19 -35 30 -116 96 -226
190 -234 199 -5 6 -39 36 -75 66 -36 30 -70 60 -76 65 -6 6 -46 42 -89 80 -43
39 -83 75 -89 80 -6 6 -56 51 -111 100 -55 50 -109 99 -121 110 -11 11 -76 72
-144 135 -225 210 -390 373 -390 386 0 7 3 14 8 16 4 2 50 50 102 108 52 58
97 107 100 110 4 3 35 37 70 75 35 39 82 90 104 115 23 25 84 95 136 155 52
61 97 112 100 115 3 3 34 39 70 80 36 41 67 77 70 80 3 3 34 39 70 80 36 41
77 88 92 105 43 49 64 74 100 117 31 39 340 411 376 453 25 29 112 135 149
181 25 31 331 415 398 499 9 11 28 35 43 54 31 38 103 129 147 186 111 142
551 725 629 833 37 51 83 113 94 127 38 49 429 591 441 613 7 13 27 16 146 26
93 8 198 19 305 31 19 2 64 7 100 10 36 4 79 8 95 10 33 4 130 15 185 21 60 6
142 14 225 24 44 5 107 12 140 15 33 4 71 8 85 10 21 3 125 17 220 30 14 2 52
6 85 9 33 4 71 9 85 11 14 3 43 7 65 10 22 2 56 7 75 9 19 3 58 8 85 11 28 3
61 7 75 10 14 2 48 7 75 10 28 3 64 8 80 10 17 3 46 7 65 10 19 2 44 6 55 9
11 2 47 7 80 12 33 4 62 8 65 9 7 2 100 16 140 21 19 3 60 9 90 14 30 5 80 12
110 15 30 4 58 9 61 11 4 2 31 6 60 9 30 3 79 10 109 15 67 12 94 17 140 24
19 3 46 8 60 10 14 3 90 16 170 30 195 34 202 35 225 40 11 2 42 7 69 10 27 4
52 9 55 11 3 1 31 6 61 10 30 4 57 8 60 10 3 2 26 6 50 10 25 3 74 13 110 20
53 12 487 97 566 111 20 4 196 40 239 50 11 2 29 6 40 9 11 2 94 20 185 40 91
20 176 39 190 41 13 3 27 7 29 10 2 2 12 4 21 4 12 0 22 -17 34 -62z m-11854
-902 c74 -4 207 -9 295 -11 88 -3 221 -7 295 -10 802 -27 2240 -27 3085 0 353
11 460 15 579 21 l129 6 -19 -25 c-10 -14 -46 -60 -78 -103 -33 -44 -63 -81
-66 -84 -3 -3 -46 -59 -95 -125 -73 -98 -367 -471 -433 -550 -9 -11 -71 -88
-137 -170 -66 -83 -129 -161 -141 -175 -31 -36 -193 -229 -232 -278 -19 -23
-43 -51 -54 -64 -31 -36 -70 -83 -108 -129 -34 -42 -266 -311 -375 -434 -29
-33 -88 -101 -131 -150 -44 -50 -95 -107 -114 -129 -19 -21 -44 -48 -55 -61
-11 -12 -60 -65 -109 -119 -49 -53 -100 -109 -113 -124 l-23 -27 -46 50 c-67
73 -212 231 -260 284 -23 25 -79 89 -124 141 -45 52 -94 109 -109 125 -14 17
-71 82 -126 145 -55 63 -106 122 -114 130 -8 8 -57 66 -110 130 -53 63 -98
117 -101 120 -3 3 -25 30 -50 60 -25 30 -49 60 -55 66 -29 33 -284 341 -313
379 -5 6 -109 136 -232 290 -124 154 -293 370 -378 480 -84 110 -158 207 -165
215 -46 59 -97 128 -97 133 0 3 10 4 23 2 12 -2 83 -6 157 -9z"/>
<path d="M19389 23196 c-2 -2 -42 -7 -89 -11 -47 -3 -101 -8 -120 -11 -77 -9
-136 -17 -155 -21 -21 -4 -31 -6 -100 -18 -175 -29 -546 -142 -710 -215 -614
-273 -1091 -651 -1477 -1170 -48 -65 -131 -189 -163 -242 -78 -131 -116 -202
-162 -298 -30 -63 -59 -123 -64 -133 -19 -35 -97 -245 -126 -337 -57 -178 -81
-273 -108 -420 -8 -41 -16 -84 -19 -95 -2 -12 -7 -48 -11 -80 -4 -33 -8 -71
-11 -85 -12 -79 -19 -230 -18 -415 0 -227 5 -310 29 -480 20 -148 23 -163 51
-290 85 -373 219 -712 409 -1031 70 -118 228 -352 245 -364 4 -3 24 -27 45
-54 120 -157 386 -425 535 -537 26 -20 67 -52 91 -71 44 -35 296 -208 304
-208 2 0 42 -22 89 -50 201 -119 525 -255 761 -321 134 -37 340 -83 420 -94
11 -1 44 -6 74 -10 30 -3 62 -8 72 -10 136 -26 678 -26 843 0 12 2 41 6 66 9
266 35 669 145 895 246 91 40 343 168 395 200 36 22 72 43 80 47 28 13 235
155 300 206 236 185 457 403 620 612 30 39 63 79 72 89 10 11 18 23 18 27 0 4
6 14 13 21 19 19 135 198 197 303 45 77 141 269 192 385 72 161 180 518 212
695 50 286 60 399 60 690 0 193 -7 350 -18 411 -2 10 -7 44 -10 74 -11 86 -53
297 -81 406 -160 614 -479 1168 -938 1625 -49 49 -111 108 -139 131 -28 24
-63 54 -78 68 -35 33 -169 135 -250 191 -36 24 -66 47 -68 52 -2 4 -8 7 -14 7
-5 0 -28 13 -51 29 -49 34 -206 124 -293 169 -64 32 -262 122 -279 126 -5 1
-26 9 -46 18 -67 29 -369 124 -429 135 -14 2 -50 10 -80 18 -30 7 -71 16 -90
19 -19 3 -46 8 -60 11 -39 8 -130 22 -212 31 -29 3 -69 8 -88 11 -41 6 -525
14 -531 9z"/>
</g>
</svg>
